PathFileType	4	(X/Y/Z)	../Python\walking\Walking10\task.trc
DataRate	CameraRate	NumFrames	NumMarkers	Units	OrigDataRate	OrigDataStartFrame	OrigNumFrames
200.000000	200.000000	4	30	mm	200.000000	448	598
Frame#	Time	CLAV			STRN			RASI			LASI			RTH1			RTH2			RTH3			RTB1			RTB3			RD5M			RTOE			LTH1			LTH2			LTH3			LTB1			LTB2			LTB3			LTOE			LD5M			RTB2			T10			RHEE			C7			PE02			PE03			RPSI			LPSI			PE01			RBAK			LHEE			
		X1	Y1	Z1	X2	Y2	Z2	X3	Y3	Z3	X4	Y4	Z4	X5	Y5	Z5	X6	Y6	Z6	X7	Y7	Z7	X8	Y8	Z8	X9	Y9	Z9	X10	Y10	Z10	X11	Y11	Z11	X12	Y12	Z12	X13	Y13	Z13	X14	Y14	Z14	X15	Y15	Z15	X16	Y16	Z16	X17	Y17	Z17	X18	Y18	Z18	X19	Y19	Z19	X20	Y20	Z20	X21	Y21	Z21	X22	Y22	Z22	X23	Y23	Z23	X24	Y24	Z24	X25	Y25	Z25	X26	Y26	Z26	X27	Y27	Z27	X28	Y28	Z28	X29	Y29	Z29	X30	Y30	Z30	

449	2.24	1958.540527343751	1404.540771484375	177.6611633300782	1999.320556640626	1208.393920898438	189.9893798828126	1977.608642578126	1009.765808105469	328.1348571777345	1958.575073242188	1001.89013671875	51.5904235839844	2006.429199218751	752.8283691406252	380.6972656250001	1963.926635742188	710.0657348632815	363.7696228027345	2000.455078125001	676.6021118164065	357.0769653320314	2164.312988281251	384.5209960937502	309.4900817871095	2188.311035156251	309.8779602050782	301.6068115234376	2372.091064453126	70.18414306640628	288.3890075683595	2405.715332031251	110.1788024902344	250.8857727050782	1803.366210937501	715.4560546875002	38.21236038208009	1766.893432617188	686.6499633789065	57.45925903320315	1804.992797851563	638.1807861328127	56.6253471374512	1675.602294921876	370.6057434082032	97.11528015136724	1637.688110351563	342.3744201660157	113.6297607421876	1675.016113281251	292.8325195312501	110.0546646118165	1749.702514648438	31.06973838806154	177.6277770996094	1695.391235351563	21.50201988220216	134.3815307617188	2143.565185546876	327.3069152832032	312.6804809570314	1774.853881835938	1250.025756835938	174.1354064941407	2217.346679687501	23.60297393798829	219.2439880371095	1849.918945312501	1500.769775390625	159.7646636962891	1803.552124023438	1036.938598632813	241.9869537353517	1794.548583984376	1037.12939453125	191.433578491211	1811.140502929688	1048.406372070313	263.803192138672	1796.850341796876	1051.688598632813	165.6507263183594	1812.207397460938	1096.66552734375	214.0328674316407	1816.771118164063	1423.367065429688	330.8769836425782	1539.169189453126	68.94458770751956	206.8623046875001	
450	2.245	1965.241455078126	1403.649047851563	177.7659301757813	2006.181152343751	1207.477783203125	190.0112915039063	1984.973388671876	1008.841064453125	328.3711853027345	1965.466552734376	1000.883117675782	51.5310974121094	2012.619628906251	751.4809570312502	381.1354064941407	1969.952514648438	709.0283813476565	363.652313232422	2006.337524414063	675.402526855469	357.1343078613282	2171.086669921876	383.6473388671876	309.3599853515626	2195.938964843751	309.344451904297	301.2453002929689	2382.518066406251	71.55301666259768	287.3232727050782	2415.840332031251	112.2812118530274	250.0397033691407	1808.625732421876	715.398376464844	38.2482376098633	1772.070922851563	686.8239746093752	57.70065689086917	1809.808959960938	638.0987548828127	56.51836013793948	1678.675415039063	371.377655029297	97.06198120117193	1640.553100585938	343.4469604492189	113.5997314453126	1677.467285156251	293.5972290039064	109.969581604004	1749.732788085938	31.04848098754884	177.5993041992188	1695.409912109376	21.5608253479004	134.4505157470704	2150.992187500001	326.2247924804689	312.3301391601564	1781.633178710938	1249.002807617188	174.2501220703126	2228.347900390626	23.48519325256348	217.6410980224611	1856.521484375001	1499.84814453125	159.8935546875001	1810.667968750001	1035.960571289063	242.3842010498048	1801.619506835938	1036.115844726563	191.8287506103516	1818.289184570313	1047.443359375	264.187225341797	1803.875976562501	1050.644897460938	166.0498962402344	1819.252319335938	1095.692016601563	214.3768768310548	1823.449462890626	1422.39501953125	330.9623413085939	1539.726562500001	70.91787719726565	206.5498504638673	
451	2.25	1971.968627929688	1402.803955078125	177.8897247314454	2013.113891601563	1206.616455078125	190.0500183105469	1992.402465820313	1007.957092285157	328.612274169922	1972.475830078126	999.884155273438	51.48202896118167	2018.966308593751	750.2630004882815	381.5756835937501	1976.164672851563	708.1013183593752	363.5600585937501	2012.434936523438	674.3459472656252	357.197967529297	2177.691162109376	382.7140502929689	309.2275695800782	2203.234619140626	308.702606201172	300.878875732422	2392.085449218751	72.51612091064456	286.3330078125001	2425.184570312501	113.9183425903321	249.2984466552736	1813.993286132813	715.3696289062502	38.2834815979004	1777.358642578126	687.025329589844	57.93712997436526	1814.731201171876	638.0493164062502	56.39436721801761	1681.859741210938	372.1872558593751	96.95977020263678	1643.525146484376	344.5637207031251	113.5120162963868	1680.015869140626	294.404754638672	109.8372421264649	1749.769531250001	31.02766227722169	177.5664978027344	1695.452514648438	21.61190795898438	134.4939422607422	2158.122314453126	325.1274719238282	311.9444885253907	1788.482910156251	1247.985107421875	174.3809661865235	2238.464111328126	23.24557495117188	216.024871826172	1863.134033203126	1498.95458984375	160.0449523925782	1817.863403320313	1035.025024414063	242.7657775878907	1808.783569335938	1035.138916015625	192.2057952880861	1825.515258789063	1046.5263671875	264.5569458007814	1811.003417968751	1049.6318359375	166.4296569824219	1826.386962890626	1094.757446289063	214.6986236572267	1830.154296875001	1421.437255859375	331.0710449218751	1540.330322265626	72.99735260009768	206.1423950195314	
452	2.255	1978.722412109376	1402.009155273438	178.0332031250001	2020.119995117188	1205.814697265625	190.1067047119141	1999.895996093751	1007.120971679688	328.8574829101564	1979.606689453126	998.8945312500005	51.44504165649417	2025.476196289063	749.1829833984377	382.0101928710939	1982.571166992188	707.2885742187502	363.4941711425782	2018.758789062501	673.437683105469	357.2659606933595	2184.129638671876	381.718475341797	309.0909729003907	2210.197753906251	307.943328857422	300.5063781738282	2400.787109375001	73.03733062744143	285.4214477539064	2433.739746093751	115.0415267944337	248.6617279052736	1819.480957031251	715.364196777344	38.32053375244142	1782.768188476563	687.247009277344	58.16911697387698	1819.773803710938	638.0259399414065	56.25733947753909	1685.165161132813	373.031951904297	96.80907440185553	1646.613525390626	345.7226562500001	113.3651962280274	1682.670410156251	295.2531127929689	109.6590652465821	1749.814086914063	31.00752258300783	177.5291900634766	1695.519287109376	21.65460777282716	134.5122680664063	2164.953857421876	324.0098571777345	311.5217590332032	1795.404663085938	1246.976196289063	174.5266723632813	2247.675048828126	22.86645507812501	214.4173736572267	1869.756958007813	1498.09228515625	160.2191162109376	1825.139648437501	1034.13623046875	243.1282501220704	1816.042602539063	1034.202392578125	192.5612640380861	1832.819091796876	1045.659790039063	264.9089660644532	1818.234985351563	1048.652954101563	166.7863464355469	1833.612426757813	1093.865966796875	214.9942932128907	1836.885620117188	1420.496704101563	331.2028808593751	1540.984619140626	75.18546295166018	205.6396789550782	
